<svg id="Capa_1" data-name="Capa 1" xmlns="http://www.w3.org/2000/svg" viewBox="0 0 792 245.64"><defs><style>.cls-2{fill:#c52f1d}.cls-3{fill:#343434}</style></defs><path d="M603.67 202.55v-1.64a7.49 7.49 0 000 1.64zm.1-4.27c0 .88-.08 1.76-.1 2.63a12.22 12.22 0 00.1-2.63z" fill="none"/><path class="cls-2" d="M239.13 115.64c.18-1.78.4-3.58-.9-5.1-1.53-1.41-.67-3-.31-4.51s.32-2.85-.83-4c-1.73-2.17-.72-4.51-.43-6.81-2.62-8.55-3.08-17.83-7.61-25.69a129 129 0 00-18.56-25A5.06 5.06 0 01207 41q-7-6-14.2-11.64C179.8 19 165.53 12.16 149.06 10c-1.95.33-3.92 1.15-5.78-.28a52.82 52.82 0 00-15.85-2.19 11.5 11.5 0 01-7.15 0c-4.16 0-8.38-.88-12.41.9-1.23.41-1.65.94-3.22.32-10.8 1.95-21.43 4.49-31 10.12C63.05 25.09 54.58 33.73 46 42.35c-12.26 12.25-21.8 26-27.78 42.25-2.65 7.06-4.84 14.28-7.22 21.4.43 3.21 1.27 6.43-.5 9.51a2.19 2.19 0 00-.74 2.49c1 2.93-.33 1.42-.21 2.21-.81 4.55-1.83 9.1-.09 13.67 1.6 1.37.62 3 .36 4.47.66 8 3.49 15.56 5.86 23.12 5.75 18.33 15.53 35.05 30.11 47 21.57 17.69 48 24.55 75.7 26a15.91 15.91 0 018.33 0c1.79.19 3.55.29 5.08-.93 1.41-1.48 3-.67 4.53-.31a5.76 5.76 0 005-.94c1.87-1.41 3.85-.68 5.81-.28 25.48-4.88 46.94-16.65 64.16-36.34 13-14.86 20.44-32 23.5-51.28-.27-1.52-1.34-3.1.36-4.47a4.48 4.48 0 00.81-3.95 96.9 96.9 0 01.06-20.33zm-17.74 22.84c.51 1.52 1 3-.31 4.45a91 91 0 01-21.82 43.53A77.66 77.66 0 01188 196.53c-12.87 9.82-26.83 17.48-42.77 21.09-1.4 1.33-2.94.81-4.47.35-21.74 3.4-42.45-1.06-62.38-9.13-10-4-18.29-10.74-25.89-18.93-13.21-14.25-19.74-31.25-24.62-49.35-1.32-1.4-.78-2.94-.36-4.48.21-1.8.31-3.59-.86-5.16a7 7 0 010-6.63c3.41-20.07 11.14-38.44 22-55.53q19.5-30.81 54.98-39.86c2.09-.53 4.12-1.35 6.17-2 1.35-1.45 2.88-.83 4.4-.4 17-1.47 33.82-.64 49.87 6 13 5.36 24.67 12.34 33.43 23.78 4.3 5.61 8.89 11 13.12 16.66 7.42 9.94 9.52 21.63 11.7 33.35 1.13 1 .75 2.13.32 3.28.92 9.68.06 19.3-1.25 28.91z"/><path class="cls-2" d="M207.72 118.08c-.11 0-.39-.17-.38-.22.33-1.53-.38-3.17.53-4.62-.07-5.23-.65-10.55-2.75-15.23-7.38-16.5-17.19-31.36-32.32-41.85a81.44 81.44 0 00-51.39-14.71C104.48 42.23 90 48.3 77 59.42c-16.36 14-28.65 30.14-33.45 51.42.4 1.22.12 2.61-.35 2.11-1.64 2.33-.86 5-1 7.49a8.2 8.2 0 01.07 5.93 7.92 7.92 0 00.88 5.14c.56-.42 1 2.27.29 3.29a4.56 4.56 0 001 3.81c1.44 1.87.7 3.84.26 5.8a16.34 16.34 0 001.51 9.94c5.06 11.33 11.49 21.45 21.27 29.74 29.25 24.78 75.05 27.06 105.78 4.6a100 100 0 0024.05-25.77c5.68-8.52 10.35-17.51 10.57-28.12-.37-1.93-1.18-3.89.33-5.72 1.9-3.78 1.3-7.55 0-11.33-.21.12-.34.25-.49.33zm-17.84 9.32c-1 4.25-1.8 8.58-3.13 12.73-8.23 25.68-26.11 40.52-52.36 45-18.71 3.18-37.06.77-52.32-11.06-10.63-8.24-16.33-20.51-19.27-33.85-4.51-20.46-1.59-40 11.36-56.14 10.22-12.7 24-22.25 41.15-24.83 1.75-.26 3.46-.81 5.19-1.23 1-1.09 2.16-.77 3.32-.27C147 56.52 163.94 67.07 178 84.67c7.51 9.4 9.43 20.26 11.85 31.25a19.61 19.61 0 01.03 11.48z"/><path class="cls-2" d="M134.63 73.72c-1.93.44-3.86 1-5.66-.4-1.74-1.29-3.76-1.08-5.74-1.06-21 .12-43.44 18.77-47.56 39.55-1.24 2.34.24 5-1 7.39-.11 4.5-.44 9 1 13.41.56-1.05.77-.38.18 1a37.64 37.64 0 005.24 14.54c8 12.61 18.57 21.68 34.36 22.67a14.56 14.56 0 018.35 0c10-.35 19.28-3.75 27.72-8.66 14.62-8.51 24.2-21.4 24.68-38.47.65-22.76-14.2-44.69-41.57-49.97zm22.45 54.35c-2.42 13.06-14.48 23.16-28.93 24.54-9.14.87-18 .29-25.54-5.89-2-.43-3-2-4-3.48-8.38-11.07-8.7-22.85-3.86-35.53 7.39-19.38 30.48-23.5 45.65-16.56 14.97 6.85 19.12 23.69 16.68 36.92z"/><path class="cls-2" d="M140.39 116.89c-1.34-4.93-5.15-7.44-9.36-9.55-4-.6-7.94.61-11.92.12-7.27 3.94-10.26 11.42-7.8 19.49 2 6.56 6.72 10.43 12.35 10.14 9.59-.49 15.62-5.61 16.87-14.31a9.56 9.56 0 01-.14-5.89z"/><path class="cls-3" d="M293.35 130.35q-12-11.79-12-32.1A50 50 0 01288 72.59a46.14 46.14 0 0118.5-17.68 56.22 56.22 0 0126.93-6.35 93.63 93.63 0 0111.33.73c3.93.48 7.25 1 10 1.63s4.45 1 5.17 1.09l.73 1.09c-.12.6-.43 2-.91 4.26s-1 5.17-1.63 8.79a108.25 108.25 0 00-1.27 11.61l-9.07.54c0-.36.06-1.2.18-2.54s.19-2.83.19-4.53q0-12.69-20.31-12.69-14.15 0-22.31 9.34t-8.16 25.66q0 18.13 8.61 28.83t23.12 10.7q9.62 0 15.33-5.17t8.25-16.23l9.07-.72c-.37 1.45-1 4.71-1.91 9.79s-1.54 9.85-1.9 14.32l-1.09 1.45-5.17 1.73a86.37 86.37 0 01-11 2.63 82.74 82.74 0 01-14.87 1.27q-20.49 0-32.46-11.79zm128.21 10.52l.54-6.53c5.08-.36 8.49-.91 10.25-1.63a3.75 3.75 0 002.63-3.63 17.23 17.23 0 00-1.27-6.17l-4.36-14q-3.62-.18-15.05-.18-5.25 0-15.59 1.09l-5.08 13.42a27.53 27.53 0 00-1.27 5.07 4.56 4.56 0 002 4.18c1.33.84 3.5 1.27 6.52 1.27h7.8l.55.72-1.09 6.89q-1.81-.18-8.25-.54t-12.61-.37q-5.8 0-10.42.19c-3.09.11-5.17.18-6.26.18l1.09-7.44a11 11 0 006.34-2.81q2.36-2.26 4.72-7.71l28.47-72 12.88-2.36 1.27.19q0 .72 8.25 28.65t14.78 46.24c1.2 3.51 2.75 6 4.62 7.34s4.87 2.27 9 2.63l.36.73-.91 6.53c-1.21 0-3.44-.07-6.71-.18s-6.53-.19-9.79-.19q-7.44 0-14.14.55t-8.71.72zm-7.62-39.54a127.65 127.65 0 0013.24-.72l-11.06-35.18h-1.27l-13.24 35.9zm119.14 37.81a34.55 34.55 0 01-7.61-9.7l-15.24-26.65h-11.78l-.37 19.4a27 27 0 00.73 7.52 4.37 4.37 0 002.81 3 27.64 27.64 0 007.16.9l.37.55-1.46 6.89q-2.18-.18-7.88-.27c-3.81-.07-7.65-.09-11.52-.09s-7 .06-9.79.18-4.66.24-5.62.36l1.27-7.43q6.71-.92 8.88-3.09t2.18-8.16l.18-57.85q0-4.35-1.09-5.89c-.72-1-2.11-1.54-4.17-1.54l-5.08.18-.54-.73 1.09-6.89c1.2 0 3.5.07 6.89.18s6.77.19 10.15.19 7.26-.1 11.25-.28 6.71-.27 8.16-.27q14.69 0 23 6.08t8.34 16.77a24.27 24.27 0 01-5.62 15.41Q532.17 95 522 99.52l15.41 23.21q4.37 6.52 8.35 9.25a16.57 16.57 0 009.61 2.72l.72.91-.9 5.62-14 1.45q-3.94 0-8.11-3.54zM519.57 92q2.63-1.36 5.9-5.72T528.73 75q0-17.6-25.93-17.59a2.57 2.57 0 00-2 .63 4.38 4.38 0 00-.54 2.63q-1.45 22.12-1.45 32.65l14.69 1.45c2.29-.93 4.32-1.87 6.07-2.77zm54.78 38.35q-12-11.79-12-32.1A50 50 0 01569 72.59a46.14 46.14 0 0118.5-17.68 56.25 56.25 0 0126.93-6.35 93.51 93.51 0 0111.33.73c3.93.48 7.26 1 10 1.63s4.44 1 5.16 1.09l.73 1.09c-.12.6-.42 2-.91 4.26s-1 5.17-1.63 8.79a110.87 110.87 0 00-1.27 11.61l-9.07.54c0-.36.06-1.2.19-2.54s.18-2.83.18-4.53q0-12.69-20.31-12.69-14.14 0-22.31 9.34t-8.16 25.66q0 18.13 8.61 28.83t23.13 10.7q9.6 0 15.32-5.17t8.25-16.23l9.07-.72c-.37 1.45-1 4.71-1.91 9.79s-1.54 9.85-1.9 14.32l-1.09 1.45-5.17 1.73a85.94 85.94 0 01-11 2.63 82.66 82.66 0 01-14.87 1.27q-20.48 0-32.45-11.79zm126.71 10.52l.54-6.53c5.08-.36 8.49-.91 10.25-1.63a3.75 3.75 0 002.63-3.63 17.23 17.23 0 00-1.27-6.17l-4.35-14q-3.63-.18-15.06-.18-5.25 0-15.59 1.09l-5.08 13.42a27.53 27.53 0 00-1.27 5.07 4.56 4.56 0 002 4.18c1.32.84 3.5 1.27 6.52 1.27h7.8l.55.72-1.09 6.89q-1.82-.18-8.25-.54t-12.61-.37q-5.81 0-10.42.19c-3.09.11-5.17.18-6.26.18l1.09-7.44a11 11 0 006.35-2.81q2.36-2.26 4.71-7.71l28.47-72 12.88-2.36 1.27.19q0 .72 8.25 28.65t14.78 46.24q1.8 5.27 4.62 7.34c1.87 1.4 4.87 2.27 9 2.63l.36.73-.91 6.53c-1.21 0-3.44-.07-6.71-.18s-6.52-.19-9.79-.19q-7.44 0-14.14.55t-8.71.72zm-7.62-39.54a127.65 127.65 0 0013.24-.72l-11.06-35.18h-1.27l-13.24 35.9zm52.23 54.95L746 155q8.88-5.43 12.06-11.88t3.17-19.31l.19-58.94c0-3-.37-5-1.09-6s-2.18-1.45-4.35-1.45q-1.83 0-3.9.18t-2.82.18l-.54-.72 1.09-6.89h16.68c3.14 0 6.74-.19 10.79-.55l7.89-.72-.72 7.43c-3.39.49-5.57 1.21-6.53 2.18s-1.58 2.9-1.82 5.8q-1.82 42.26-1.81 60.39-.18 14.33-6.26 23t-19.49 13.6zM316 161.64l-1 4-.38.32a22.19 22.19 0 00-8.26-1.81q-7.17 0-7.16 7.23l-.07 5.42h7.74l.2.38-.32 3h-7.68l-.13 13.28.32 12.78h-5.09l.38-12.52-.19-13.54H290l-.26-.39.33-3h4.32l-.06-4.65q-.07-5.73 3.16-8.74t9.16-3a38.48 38.48 0 019.35 1.24z"/><path class="cls-3" d="M318.36 193.31l.32 13h-5.1l.42-12.61-.32-32.26 5.09-.45zm13.22-2v.13c0 3.61.82 6.39 2.45 8.32a8.62 8.62 0 007 2.91 14.22 14.22 0 004.51-.75 14.73 14.73 0 004.13-2.09l.52.38-.78 4.39a20.53 20.53 0 01-9 2.19q-6.32 0-9.93-4t-3.61-11.06q0-7.09 3.61-11.29a12.18 12.18 0 019.74-4.19q5.16 0 8 2.93t2.84 8.16a20.22 20.22 0 01-.26 3.29l-.65.65zm3.19-9.38a10.71 10.71 0 00-2.87 5.9l14.26-.26.13-.9a7.4 7.4 0 00-1.58-5.07 5.79 5.79 0 00-4.55-1.77 7.43 7.43 0 00-5.39 2.1zm39.03-5.23a17.44 17.44 0 013.78 1.26l-.91 4.45-.58.19a12.09 12.09 0 00-6.64-2.19 7 7 0 00-5.94 2.9q-2.13 2.91-2.13 8.13c0 3.48.75 6.23 2.23 8.23a7.24 7.24 0 006.16 3 12.46 12.46 0 003.65-.59 14.91 14.91 0 003.57-1.61l.59.32-.59 4.33a19.84 19.84 0 01-7.86 1.67 11.35 11.35 0 01-9.23-4q-3.36-4-3.35-11.06t3.51-11.32a11.88 11.88 0 019.58-4.16 19.19 19.19 0 014.16.45zm28.93 9.52a5.82 5.82 0 00-1.22-4.13 4.78 4.78 0 00-3.81-1.49q-4.26 0-8.71 4.58l-.13 8.13.33 13h-5.1l.39-12.58-.32-32.26 5.09-.45-.25 19.91h.39a19.36 19.36 0 018.19-4.58q4.9 0 7.42 2.25a8.05 8.05 0 012.45 6.45l-.13 8.39.26 12.84h-5.16zm31-7.94a7.09 7.09 0 012.42 5.68q0 1.09-.39 7.93t-.39 8a3.13 3.13 0 00.46 2 1.91 1.91 0 001.54.55 7.36 7.36 0 002.2-.39l.51.45-.51 2.91a9.3 9.3 0 01-3.68 1.29 5 5 0 01-3.19-1.42 4.81 4.81 0 01-1.26-3.36H431a19.65 19.65 0 01-6.91 4.84 9.78 9.78 0 01-6.74-2.16 7.52 7.52 0 01-2.42-5.9 6.49 6.49 0 011.52-4.52 8.59 8.59 0 014.48-2.39l10.45-2.45.07-4.19a5.31 5.31 0 00-1.32-3.87 5.07 5.07 0 00-3.78-1.36 10.18 10.18 0 00-4.38 1 20.4 20.4 0 00-4.71 3.22l-.52-.26-.64-3.67a18.18 18.18 0 0111-4 9.84 9.84 0 016.63 2.07zM422 194.86a3.86 3.86 0 00-1.87 1.06 3.07 3.07 0 00-.59 2 4.48 4.48 0 001.2 3.32 4.32 4.32 0 003.19 1.19c2.37 0 4.78-1.52 7.23-4.58l.19-5.29zm40.34-17.16l-.71 4.19-.78.2a11.28 11.28 0 00-6.19-2.13 5.14 5.14 0 00-3.55 1.22 3.87 3.87 0 00-1.35 3 3.36 3.36 0 001.39 2.81 24.24 24.24 0 004.29 2.42 39.81 39.81 0 014 2.09 8.94 8.94 0 012.61 2.49 6.41 6.41 0 011.1 3.8 8.53 8.53 0 01-1.23 4.45 8.91 8.91 0 01-3.61 3.33 12.12 12.12 0 01-5.68 1.25 18.23 18.23 0 01-8.58-2.13l.65-4.38.58-.39a13.9 13.9 0 003.9 2.39 10.69 10.69 0 004 .84 5.57 5.57 0 003.87-1.33 4 4 0 001.48-3.12 3.35 3.35 0 00-1.39-2.81 23.62 23.62 0 00-4.29-2.42 40.64 40.64 0 01-4.06-2.1 8.5 8.5 0 01-2.64-2.54 6.9 6.9 0 01-1.1-4 7.74 7.74 0 012.74-6.13 11 11 0 017.45-2.39 18.29 18.29 0 017.1 1.39zm41.48 15.61L504 200a3.73 3.73 0 00.45 1.9 1.64 1.64 0 001.42.55 6.85 6.85 0 002.19-.39l.52.45-.52 2.91a8.34 8.34 0 01-3.61 1.29 4.88 4.88 0 01-3.13-1.36 5.37 5.37 0 01-1.38-3.16h-.46a32.32 32.32 0 01-3.48 2.68 19.91 19.91 0 01-3.55 1.77q-6.37 0-9.8-3.9t-3.42-11.13q0-7.29 3.81-11.32t10.51-4a24 24 0 015.68.64l-.07-15.42 5.1-.45zm-17.36-10.67q-2.38 2.81-2.38 8.09 0 5.49 2.16 8.52a6.93 6.93 0 006 3 7.45 7.45 0 003.51-.9 13.44 13.44 0 003.58-3l.13-4.64-.19-12.26a14.92 14.92 0 00-6.26-1.61 8.09 8.09 0 00-6.55 2.8zm30.97 8.67v.13c0 3.61.81 6.39 2.45 8.32a8.59 8.59 0 007 2.91 14.22 14.22 0 004.51-.75 14.87 14.87 0 004.13-2.09l.52.38-.78 4.39a20.53 20.53 0 01-9 2.19c-4.21 0-7.53-1.34-9.93-4s-3.62-6.37-3.62-11.06 1.21-8.49 3.62-11.29a12.16 12.16 0 019.74-4.19c3.44 0 6.1 1 8 2.93s2.83 4.68 2.83 8.16a20.25 20.25 0 01-.25 3.29l-.65.65zm3.19-9.38a10.64 10.64 0 00-2.87 5.9l14.26-.26.13-.9a7.4 7.4 0 00-1.58-5.07 5.8 5.8 0 00-4.55-1.77 7.43 7.43 0 00-5.39 2.1zm50.03-4.23l-.71 4.19-.78.2A11.28 11.28 0 00563 180a5.14 5.14 0 00-3.55 1.22 3.87 3.87 0 00-1.35 3 3.38 3.38 0 001.38 2.81 25 25 0 004.29 2.42 39.05 39.05 0 014 2.09 8.94 8.94 0 012.61 2.49 6.41 6.41 0 011.1 3.8 8.53 8.53 0 01-1.23 4.45 8.91 8.91 0 01-3.61 3.33 12.14 12.14 0 01-5.68 1.25 18.23 18.23 0 01-8.58-2.13l.65-4.38.58-.39a13.9 13.9 0 003.9 2.39 10.69 10.69 0 004 .84 5.57 5.57 0 003.87-1.33 4 4 0 001.48-3.12 3.35 3.35 0 00-1.39-2.81 23.62 23.62 0 00-4.29-2.42 40.64 40.64 0 01-4.06-2.1 8.5 8.5 0 01-2.64-2.54 6.9 6.9 0 01-1.1-4 7.74 7.74 0 012.74-6.13 11 11 0 017.45-2.39 18.29 18.29 0 017.08 1.35zm11.03 13.61v.13c0 3.61.81 6.39 2.45 8.32a8.59 8.59 0 007 2.91 14.22 14.22 0 004.51-.75 14.87 14.87 0 004.13-2.09l.52.38-.78 4.39a20.53 20.53 0 01-9 2.19c-4.21 0-7.53-1.34-9.93-4s-3.62-6.37-3.62-11.06 1.21-8.49 3.62-11.29a12.16 12.16 0 019.74-4.19c3.44 0 6.1 1 8 2.93s2.83 4.68 2.83 8.16a20.25 20.25 0 01-.25 3.29l-.65.65zm3.19-9.38a10.64 10.64 0 00-2.87 5.9l14.26-.26.13-.9a7.4 7.4 0 00-1.58-5.07 5.8 5.8 0 00-4.55-1.77 7.43 7.43 0 00-5.39 2.1zm42.87 4.29a5.87 5.87 0 00-1.23-4.13 4.77 4.77 0 00-3.8-1.49q-4.07 0-8.78 4.58v8.13l.26 13h-5.1l.33-12.52-.26-16.7 4.84-.46v4.33h.38a19.34 19.34 0 018.2-4.58q4.83 0 7.38 2.25a8 8 0 012.49 6.45l-.13 8.39.26 12.84h-5.17zm28.57 14.83l.58.39-.51 3.35a19.7 19.7 0 01-6.45 1.88 8.67 8.67 0 01-5.29-2.71 9.06 9.06 0 01-1.62-5.81l.2-4.58-.07-13.35h-4.06l-.26-.39.32-3h3.94V172l4.45-1.93.52.45-.13 6.26h8.77l.26.38-.32 3h-8.71l-.32 17.48a5 5 0 00.9 3.61 4.16 4.16 0 003.16 1 10.24 10.24 0 004.64-1.2zm11.42-36.77a2.87 2.87 0 01.77 2.13 3.11 3.11 0 01-.8 2.26 3 3 0 01-2.23.84 2.74 2.74 0 01-2.09-.78 3.47 3.47 0 01.06-4.38 3 3 0 012.23-.84 2.81 2.81 0 012.06.77zm-4.45 29.48l-.19-16.7 5-.46-.13 16.71.13 13h-5zm37.41-.45l.2 6.65a3.73 3.73 0 00.45 1.9 1.64 1.64 0 001.42.55A6.9 6.9 0 00705 202l.52.45-.52 2.91a8.34 8.34 0 01-3.61 1.29 4.88 4.88 0 01-3.13-1.36 5.38 5.38 0 01-1.39-3.16h-.45a32.32 32.32 0 01-3.48 2.68 20.26 20.26 0 01-3.55 1.77q-6.39 0-9.81-3.9t-3.41-11.13q0-7.29 3.8-11.32t10.52-4a23.84 23.84 0 015.67.64l-.06-15.42 5.09-.45zm-17.35-10.67q-2.39 2.81-2.39 8.09 0 5.49 2.17 8.52a6.91 6.91 0 006 3 7.46 7.46 0 003.52-.9 13.44 13.44 0 003.58-3l.13-4.64-.2-12.26a14.88 14.88 0 00-6.25-1.61 8.08 8.08 0 00-6.56 2.8zm49-2.52q3.31 3.9 3.32 11 0 7.49-3.49 11.58t-9.93 4.09q-6.06 0-9.39-3.9t-3.32-11c0-5 1.17-8.84 3.52-11.58s5.66-4.09 10-4.09q5.95 0 9.29 3.9zm-15.84 2.48q-2.13 2.78-2.13 8.13 0 6.2 2.1 9.29a6.9 6.9 0 006.09 3.1 7.4 7.4 0 006.19-2.71q2.13-2.72 2.13-8.13c0-4.09-.7-7.18-2.09-9.29a6.86 6.86 0 00-6.1-3.16 7.32 7.32 0 00-6.19 2.77z"/></svg>