<svg id="Capa_1" data-name="Capa 1" xmlns="http://www.w3.org/2000/svg" viewBox="0 0 792 245.64"><defs><style>.cls-1{fill:none;}.cls-2{fill:#c52f1d;}.cls-3{fill:#343434;}</style></defs><title>carcaj-logo</title><path class="cls-1" d="M626.51,205.84c0-.56,0-1.13,0-1.7A8.05,8.05,0,0,0,626.51,205.84Z"/><path class="cls-1" d="M626.62,201.41c0,.91-.08,1.82-.11,2.73A13.17,13.17,0,0,0,626.62,201.41Z"/><path class="cls-2" d="M125.09,30.76c-1.39-.14-2.8-.31-4,.71-1.1,1.2-2.33.52-3.53.24a3.29,3.29,0,0,0-3.13.65c-1.7,1.35-3.53.56-5.33.33-6.68,2.05-13.94,2.42-20.09,6A100.39,100.39,0,0,0,69.44,53.17a4,4,0,0,1-2.76,2.74Q62,61.37,57.57,67c-8.06,10.17-13.44,21.33-15.14,34.21.26,1.53.9,3.07-.22,4.52a41.38,41.38,0,0,0-1.71,12.41,9,9,0,0,1,0,5.59c0,3.25-.69,6.55.71,9.71.32,1,.74,1.29.25,2.52,1.53,8.45,3.51,16.76,7.92,24.26,4.87,8.28,11.63,14.91,18.37,21.66,9.58,9.59,20.37,17.06,33.06,21.73,5.52,2,11.17,3.75,16.76,5.6,2.5-.33,5-1,7.44.4a1.7,1.7,0,0,0,1.95.58c2.3-.8,1.12.26,1.74.17,3.56.63,7.12,1.42,10.69.07,1.07-1.26,2.31-.49,3.5-.29,6.28-.51,12.17-2.73,18.09-4.58,14.34-4.5,27.41-12.15,36.76-23.55,13.84-16.88,19.21-37.53,20.31-59.22a12.47,12.47,0,0,1,0-6.53,5.08,5.08,0,0,0-.73-4c-1.16-1.11-.52-2.34-.25-3.54a4.47,4.47,0,0,0-.73-3.92c-1.11-1.46-.53-3-.22-4.55-3.82-19.93-13-36.72-28.43-50.19-11.63-10.17-25-16-40.11-18.38-1.19.21-2.43,1-3.5-.28A3.48,3.48,0,0,0,141,30.8,75.07,75.07,0,0,1,125.09,30.76ZM143,38.65c1.29-.44,2.57-.82,3.76.26a76.9,76.9,0,0,1,36.76,18.42,65.17,65.17,0,0,1,8.5,9.54c8.29,10.87,14.76,22.66,17.81,36.12,1.12,1.18.68,2.48.29,3.77,2.87,18.35-.89,35.85-7.71,52.68-3.41,8.42-9.06,15.43-16,21.85-12,11.16-26.39,16.67-41.67,20.79-1.18,1.11-2.48.66-3.78.3a5.81,5.81,0,0,0-4.36.73,5.86,5.86,0,0,1-5.6,0c-16.94-2.87-32.46-9.4-46.89-18.56a75.16,75.16,0,0,1-33.65-46.49c-.45-1.77-1.14-3.48-1.72-5.21-1.23-1.14-.7-2.43-.34-3.71-1.24-14.39-.54-28.56,5.08-42.12C58,76.11,63.89,66.22,73.55,58.82c4.73-3.63,9.28-7.5,14.07-11.08,8.39-6.27,18.26-8,28.16-9.87.83-1,1.8-.64,2.77-.28C126.74,36.82,134.86,37.54,143,38.65Z"/><path class="cls-2" d="M182.06,117.68c-.07,0-.25-.11-.24-.14.2-1-.24-2,.33-2.93a24.41,24.41,0,0,0-1.74-9.67C175.73,94.47,169.5,85,159.9,78.38a51.77,51.77,0,0,0-32.62-9.33,45.22,45.22,0,0,0-28.19,11.4c-10.38,8.88-18.18,19.13-21.23,32.63.25.78.08,1.66-.22,1.34-1,1.48-.55,3.15-.62,4.75a5.22,5.22,0,0,1,0,3.77,5,5,0,0,0,.56,3.26c.35-.27.64,1.44.19,2.09a2.9,2.9,0,0,0,.6,2.42c.92,1.19.45,2.44.17,3.68a10.4,10.4,0,0,0,1,6.31c3.21,7.19,7.29,13.61,13.5,18.87,18.56,15.72,47.63,17.17,67.12,2.92a63.39,63.39,0,0,0,15.27-16.36c3.6-5.4,6.56-11.11,6.71-17.84-.24-1.23-.76-2.47.21-3.63,1.2-2.4.82-4.79,0-7.19C182.24,117.54,182.16,117.65,182.06,117.68ZM175.53,124c-.73,3-1.28,6.08-2.23,9-5.84,18.21-18.51,28.73-37.13,31.9-13.28,2.26-26.29.54-37.11-7.84-7.54-5.85-11.58-14.55-13.67-24-3.2-14.51-1.13-28.4,8.06-39.82,7.25-9,17-15.78,29.18-17.61,1.25-.19,2.46-.58,3.68-.87.73-.78,1.54-.55,2.36-.2,16.4-.86,28.46,6.63,38.42,19.11,5.32,6.67,6.68,14.37,8.4,22.17A13.94,13.94,0,0,1,175.53,124Z"/><path class="cls-2" d="M135.25,88c-1.34.31-2.68.73-3.93-.27s-2.6-.75-4-.74c-14.58.09-30.13,13-33,27.43-.86,1.62.17,3.5-.69,5.12-.07,3.12-.3,6.26.7,9.3.39-.72.54-.26.12.7a26.11,26.11,0,0,0,3.64,10.07c5.56,8.75,12.88,15,23.82,15.73a10.22,10.22,0,0,1,5.8,0,40.92,40.92,0,0,0,19.22-6c10.14-5.9,16.78-14.84,17.12-26.68C164.53,106.88,154.2,91.68,135.25,88Zm20.85,39.13C154,138.26,143.78,146.86,131.48,148c-7.78.74-15.33.25-21.75-5-1.68-.37-2.52-1.69-3.42-3-7.13-9.43-7.4-19.46-3.28-30.25,6.29-16.51,25.95-20,38.86-14.11S158.19,115.88,156.1,127.14Z"/><path class="cls-2" d="M135.26,118.14c-.57-2.11-2.2-3.18-4-4.09-1.7-.25-3.4.26-5.1,0a6.79,6.79,0,0,0-3.34,8.35c.86,2.81,2.87,4.46,5.29,4.34,4.1-.21,6.68-2.4,7.21-6.13A4.17,4.17,0,0,1,135.26,118.14Z"/><path class="cls-2" d="M123,14.21c-1.67-.16-3.34-.37-4.77.84-1.31,1.43-2.77.63-4.2.29s-2.66-.3-3.73.78c-2,1.6-4.21.66-6.36.39C96,19,87.34,19.39,80,23.62A119.39,119.39,0,0,0,56.67,40.93a4.73,4.73,0,0,1-3.3,3.26C49.66,48.53,46.06,53,42.51,57.43c-9.61,12.12-16,25.43-18,40.79.31,1.82,1.08,3.66-.26,5.39a49.34,49.34,0,0,0-2,14.79,10.68,10.68,0,0,1,0,6.66c-.05,3.89-.83,7.82.83,11.58.39,1.14.88,1.54.31,3,1.82,10.08,4.18,20,9.44,28.93,5.8,9.87,13.86,17.78,21.9,25.83,11.43,11.43,24.29,20.33,39.41,25.9,6.59,2.43,13.32,4.47,20,6.69,3-.41,6-1.19,8.87.46a2,2,0,0,0,2.34.7c2.73-1,1.32.31,2.06.2,4.25.75,8.49,1.7,12.75.08,1.28-1.49,2.76-.58,4.18-.33,7.48-.62,14.51-3.26,21.56-5.47,17.1-5.36,32.69-14.49,43.84-28.08,16.49-20.13,22.89-44.74,24.21-70.61a14.84,14.84,0,0,1,0-7.77c.18-1.67.26-3.32-.87-4.74-1.38-1.32-.62-2.79-.29-4.23a5.35,5.35,0,0,0-.88-4.67c-1.32-1.74-.63-3.59-.26-5.42-4.55-23.77-15.52-43.78-33.9-59.85-13.86-12.11-29.84-19-47.82-21.91-1.42.25-2.9,1.25-4.17-.33a4.15,4.15,0,0,0-3.69-.76A89.86,89.86,0,0,1,123,14.21Zm22.8,7.44c1.56-.53,3.12-1,4.56.31a93.4,93.4,0,0,1,44.7,22.4A79.07,79.07,0,0,1,205.42,56c10.08,13.21,18,27.54,21.66,43.91,1.36,1.43.83,3,.35,4.59,3.49,22.31-1.09,43.58-9.37,64.05-4.15,10.25-11,18.77-19.44,26.57C184,208.66,166.54,215.37,148,220.37c-1.43,1.35-3,.81-4.59.37-1.85-.21-3.69-.31-5.31.88a7.13,7.13,0,0,1-6.8,0c-20.6-3.49-39.47-11.43-57-22.58Q42.61,179,33.31,142.55c-.54-2.15-1.39-4.23-2.09-6.34-1.49-1.38-.85-3-.41-4.51C29.3,114.2,30.15,97,37,80.49,42.5,67.2,49.65,55.17,61.41,46.17c5.75-4.41,11.28-9.12,17.1-13.47,10.21-7.62,22.21-9.77,34.24-12,1-1.16,2.19-.77,3.37-.33C126.08,19.42,136,20.29,145.82,21.65Z"/><path class="cls-2" d="M83.23,171.15a3.81,3.81,0,0,0,2.6,1.81c1.28-.05,1.58,1,2.09,1.81A2.6,2.6,0,0,0,90,176.14c1.69.19,2.27,1.64,3.14,2.75,4.84,2.56,9.06,6.36,14.43,7.79a79.12,79.12,0,0,0,18.88,2.79,3.12,3.12,0,0,1,3,0c3.74-.3,7.47-.68,11.2-1.11C150.8,187.22,160,184,168,177.88c.7-1,1.2-2.19,2.63-2.37a32.63,32.63,0,0,0,7.82-5.9,6.92,6.92,0,0,1,3.09-3.08c1.83-1.77,4-3.23,5-5.74.35-.71.3-1.12,1.25-1.53,3.84-5.5,7.34-11.17,9.05-17.73,1.89-7.25,1.82-14.62,1.82-22.06a70.38,70.38,0,0,0-6.27-30.19c-1.93-4.16-4.11-8.22-6.18-12.32-1.57-1.2-3.33-2.22-3.9-4.32.13-.67-.26-1.06-.76-1.4-1.71-.82-.47-.75-.87-1-1.62-2.3-3.15-4.7-5.88-5.92-1.29.09-1.55-1-2.1-1.78-3.76-3.17-8.25-5.2-12.55-7.44-10.44-5.42-21.92-8.41-33.41-7.28-17,1.68-31.42,10.1-44,21.44a9.67,9.67,0,0,1-3.63,3.58,4,4,0,0,0-1.8,2.59c0,1.25-1,1.58-1.82,2.09A3.48,3.48,0,0,0,73.7,80c-.19,1.42-1.37,2-2.39,2.63C62.38,95.75,58.18,110.07,59.25,126a60.53,60.53,0,0,0,12,32.23c.77.54,1.92.76,1.78,2.08a2.75,2.75,0,0,0,1.36,2.06A58,58,0,0,1,83.23,171.15ZM77.7,157c-1-.47-1.88-1-1.94-2.21A59.67,59.67,0,0,1,65.6,124.33a50.82,50.82,0,0,1,.58-9.94c1.43-10.56,4.37-20.62,10.14-29.72,0-1.26,1-1.74,1.93-2.24,8.57-11.69,20.35-19.26,33.44-24.77,6.56-2.77,13.57-3.51,21-3.24,12.84.48,23.85,5.35,34.6,11.51,1.26,0,1.74,1,2.26,1.91a4.52,4.52,0,0,0,2.81,2,4.56,4.56,0,0,1,3.12,3.07A98.23,98.23,0,0,1,191.12,109a58.29,58.29,0,0,1-7.1,44.16c-.74,1.23-1.3,2.55-1.94,3.83,0,1.3-1,1.72-1.87,2.23-7.28,8.61-15.52,16-26.14,20.4-8.56,3.53-17.3,5.74-26.76,4.49-4.62-.61-9.29-1-13.92-1.65-8.12-1.17-14.57-5.63-21.06-10.07-1,.06-1.36-.64-1.69-1.38A82,82,0,0,1,77.7,157Z"/><path class="cls-2" d="M132,102a2.34,2.34,0,0,1-2.21-.15,3.44,3.44,0,0,0-2.24-.42c-8.21,0-17,7.33-18.57,15.45-.49.91.09,2-.39,2.88A15.42,15.42,0,0,0,109,125c.22-.41.3-.15.07.39a14.64,14.64,0,0,0,2,5.67c3.13,4.93,7.25,8.47,13.41,8.86a5.74,5.74,0,0,1,3.26,0,23,23,0,0,0,10.83-3.38c5.71-3.32,9.45-8.35,9.63-15C148.51,112.62,142.7,104.06,132,102Zm10.81,21.82c-1.09,5.88-6.52,10.43-13,11.05-4.11.4-8.11.14-11.51-2.65a3.16,3.16,0,0,1-1.81-1.56c-3.77-5-3.92-10.31-1.74-16,3.34-8.73,13.74-10.59,20.58-7.46S143.94,117.85,142.84,123.81Z"/><path class="cls-3" d="M293.35,130.35q-12-11.79-12-32.1A50,50,0,0,1,288,72.59a46.14,46.14,0,0,1,18.5-17.68,56.22,56.22,0,0,1,26.93-6.35,93.63,93.63,0,0,1,11.33.73c3.93.48,7.25,1,10,1.63s4.45,1,5.17,1.09l.73,1.09c-.12.6-.43,2-.91,4.26s-1,5.17-1.63,8.79a108.25,108.25,0,0,0-1.27,11.61l-9.07.54c0-.36.06-1.2.18-2.54s.19-2.83.19-4.53q0-12.69-20.31-12.69-14.15,0-22.31,9.34t-8.16,25.66q0,18.13,8.61,28.83t23.12,10.7q9.62,0,15.33-5.17t8.25-16.23l9.07-.72c-.37,1.45-1,4.71-1.91,9.79s-1.54,9.85-1.9,14.32l-1.09,1.45-5.17,1.73a86.37,86.37,0,0,1-11,2.63,82.74,82.74,0,0,1-14.87,1.27Q305.32,142.14,293.35,130.35Z"/><path class="cls-3" d="M421.56,140.87l.54-6.53c5.08-.36,8.49-.91,10.25-1.63a3.75,3.75,0,0,0,2.63-3.63,17.23,17.23,0,0,0-1.27-6.17l-4.36-14q-3.62-.18-15.05-.18-5.25,0-15.59,1.09l-5.08,13.42a27.53,27.53,0,0,0-1.27,5.07,4.56,4.56,0,0,0,2,4.18c1.33.84,3.5,1.27,6.52,1.27h7.8l.55.72-1.09,6.89q-1.81-.18-8.25-.54t-12.61-.37q-5.8,0-10.42.19c-3.09.11-5.17.18-6.26.18l1.09-7.44a11,11,0,0,0,6.34-2.81q2.36-2.26,4.72-7.71l28.47-72,12.88-2.36,1.27.19q0,.72,8.25,28.65t14.78,46.24c1.2,3.51,2.75,6,4.62,7.34s4.87,2.27,9,2.63l.36.73-.91,6.53c-1.21,0-3.44-.07-6.71-.18s-6.53-.19-9.79-.19q-7.44,0-14.14.55t-8.71.72Zm-7.62-39.54a127.65,127.65,0,0,0,13.24-.72L416.12,65.43h-1.27l-13.24,35.9Z"/><path class="cls-3" d="M533.08,139.14a34.55,34.55,0,0,1-7.61-9.7l-15.24-26.65H498.45l-.37,19.4a27,27,0,0,0,.73,7.52,4.37,4.37,0,0,0,2.81,3,27.64,27.64,0,0,0,7.16.9l.37.55-1.46,6.89q-2.18-.18-7.88-.27c-3.81-.07-7.65-.09-11.52-.09s-7,.06-9.79.18-4.66.24-5.62.36l1.27-7.43q6.71-.92,8.88-3.09t2.18-8.16l.18-57.85q0-4.35-1.09-5.89c-.72-1-2.11-1.54-4.17-1.54l-5.08.18-.54-.73,1.09-6.89c1.2,0,3.5.07,6.89.18s6.77.19,10.15.19,7.26-.1,11.25-.28,6.71-.27,8.16-.27q14.69,0,23,6.08t8.34,16.77a24.27,24.27,0,0,1-5.62,15.41Q532.17,95,522,99.52l15.41,23.21q4.37,6.52,8.35,9.25a16.57,16.57,0,0,0,9.61,2.72l.72.91-.9,5.62-14,1.45Q537.25,142.68,533.08,139.14ZM519.57,92q2.63-1.36,5.9-5.72T528.73,75q0-17.6-25.93-17.59a2.57,2.57,0,0,0-2,.63,4.38,4.38,0,0,0-.54,2.63q-1.45,22.12-1.45,32.65l14.69,1.45C515.79,93.84,517.82,92.9,519.57,92Z"/><path class="cls-3" d="M574.35,130.35q-12-11.79-12-32.1A50,50,0,0,1,569,72.59a46.14,46.14,0,0,1,18.5-17.68,56.25,56.25,0,0,1,26.93-6.35,93.51,93.51,0,0,1,11.33.73c3.93.48,7.26,1,10,1.63s4.44,1,5.16,1.09l.73,1.09c-.12.6-.42,2-.91,4.26s-1,5.17-1.63,8.79a110.87,110.87,0,0,0-1.27,11.61l-9.07.54c0-.36.06-1.2.19-2.54s.18-2.83.18-4.53q0-12.69-20.31-12.69-14.14,0-22.31,9.34t-8.16,25.66q0,18.13,8.61,28.83t23.13,10.7q9.6,0,15.32-5.17t8.25-16.23l9.07-.72c-.37,1.45-1,4.71-1.91,9.79s-1.54,9.85-1.9,14.32l-1.09,1.45-5.17,1.73a85.94,85.94,0,0,1-11,2.63,82.66,82.66,0,0,1-14.87,1.27Q586.32,142.14,574.35,130.35Z"/><path class="cls-3" d="M701.06,140.87l.54-6.53c5.08-.36,8.49-.91,10.25-1.63a3.75,3.75,0,0,0,2.63-3.63,17.23,17.23,0,0,0-1.27-6.17l-4.35-14q-3.63-.18-15.06-.18-5.25,0-15.59,1.09l-5.08,13.42a27.53,27.53,0,0,0-1.27,5.07,4.56,4.56,0,0,0,2,4.18c1.32.84,3.5,1.27,6.52,1.27h7.8l.55.72-1.09,6.89q-1.82-.18-8.25-.54t-12.61-.37q-5.81,0-10.42.19c-3.09.11-5.17.18-6.26.18l1.09-7.44a11,11,0,0,0,6.35-2.81q2.36-2.26,4.71-7.71l28.47-72,12.88-2.36,1.27.19q0,.72,8.25,28.65t14.78,46.24q1.8,5.27,4.62,7.34c1.87,1.4,4.87,2.27,9,2.63l.36.73-.91,6.53c-1.21,0-3.44-.07-6.71-.18s-6.52-.19-9.79-.19q-7.44,0-14.14.55t-8.71.72Zm-7.62-39.54a127.65,127.65,0,0,0,13.24-.72L695.62,65.43h-1.27l-13.24,35.9Z"/><path class="cls-3" d="M745.67,156.28,746,155q8.88-5.43,12.06-11.88t3.17-19.31l.19-58.94c0-3-.37-5-1.09-6s-2.18-1.45-4.35-1.45q-1.83,0-3.9.18t-2.82.18l-.54-.72,1.09-6.89h16.68c3.14,0,6.74-.19,10.79-.55l7.89-.72-.72,7.43c-3.39.49-5.57,1.21-6.53,2.18s-1.58,2.9-1.82,5.8q-1.82,42.26-1.81,60.39-.18,14.33-6.26,23t-19.49,13.6Z"/><path class="cls-3" d="M316,161.64l-1,4-.38.32a22.19,22.19,0,0,0-8.26-1.81q-7.17,0-7.16,7.23l-.07,5.42h7.74l.2.38-.32,3h-7.68l-.13,13.28.32,12.78h-5.09l.38-12.52-.19-13.54H290l-.26-.39.33-3h4.32l-.06-4.65q-.07-5.73,3.16-8.74t9.16-3A38.48,38.48,0,0,1,316,161.64Z"/><path class="cls-3" d="M318.36,193.31l.32,13h-5.1L314,193.7l-.32-32.26,5.09-.45Z"/><path class="cls-3" d="M331.58,191.31v.13c0,3.61.82,6.39,2.45,8.32a8.62,8.62,0,0,0,7,2.91,14.22,14.22,0,0,0,4.51-.75,14.73,14.73,0,0,0,4.13-2.09l.52.38-.78,4.39a20.53,20.53,0,0,1-9,2.19q-6.32,0-9.93-4t-3.61-11.06q0-7.09,3.61-11.29a12.18,12.18,0,0,1,9.74-4.19q5.16,0,8,2.93t2.84,8.16a20.22,20.22,0,0,1-.26,3.29l-.65.65Zm3.19-9.38a10.71,10.71,0,0,0-2.87,5.9l14.26-.26.13-.9a7.4,7.4,0,0,0-1.58-5.07,5.79,5.79,0,0,0-4.55-1.77A7.43,7.43,0,0,0,334.77,181.93Z"/><path class="cls-3" d="M373.8,176.7a17.44,17.44,0,0,1,3.78,1.26l-.91,4.45-.58.19a12.09,12.09,0,0,0-6.64-2.19,7,7,0,0,0-5.94,2.9q-2.13,2.91-2.13,8.13c0,3.48.75,6.23,2.23,8.23a7.24,7.24,0,0,0,6.16,3,12.46,12.46,0,0,0,3.65-.59,14.91,14.91,0,0,0,3.57-1.61l.59.32-.59,4.33a19.84,19.84,0,0,1-7.86,1.67,11.35,11.35,0,0,1-9.23-4q-3.36-4-3.35-11.06t3.51-11.32a11.88,11.88,0,0,1,9.58-4.16A19.19,19.19,0,0,1,373.8,176.7Z"/><path class="cls-3" d="M402.73,186.22a5.82,5.82,0,0,0-1.22-4.13,4.78,4.78,0,0,0-3.81-1.49q-4.26,0-8.71,4.58l-.13,8.13.33,13h-5.1l.39-12.58-.32-32.26,5.09-.45L389,180.93h.39a19.36,19.36,0,0,1,8.19-4.58q4.9,0,7.42,2.25a8.05,8.05,0,0,1,2.45,6.45l-.13,8.39.26,12.84h-5.16Z"/><path class="cls-3" d="M433.73,178.28a7.09,7.09,0,0,1,2.42,5.68q0,1.09-.39,7.93t-.39,8a3.13,3.13,0,0,0,.46,2,1.91,1.91,0,0,0,1.54.55,7.36,7.36,0,0,0,2.2-.39l.51.45-.51,2.91a9.3,9.3,0,0,1-3.68,1.29,5,5,0,0,1-3.19-1.42,4.81,4.81,0,0,1-1.26-3.36H431a19.65,19.65,0,0,1-6.91,4.84,9.78,9.78,0,0,1-6.74-2.16,7.52,7.52,0,0,1-2.42-5.9,6.49,6.49,0,0,1,1.52-4.52,8.59,8.59,0,0,1,4.48-2.39l10.45-2.45.07-4.19a5.31,5.31,0,0,0-1.32-3.87,5.07,5.07,0,0,0-3.78-1.36,10.18,10.18,0,0,0-4.38,1,20.4,20.4,0,0,0-4.71,3.22l-.52-.26-.64-3.67a18.18,18.18,0,0,1,11-4A9.84,9.84,0,0,1,433.73,178.28ZM422,194.86a3.86,3.86,0,0,0-1.87,1.06,3.07,3.07,0,0,0-.59,2,4.48,4.48,0,0,0,1.2,3.32,4.32,4.32,0,0,0,3.19,1.19c2.37,0,4.78-1.52,7.23-4.58l.19-5.29Z"/><path class="cls-3" d="M462.34,177.7l-.71,4.19-.78.2a11.28,11.28,0,0,0-6.19-2.13,5.14,5.14,0,0,0-3.55,1.22,3.87,3.87,0,0,0-1.35,3,3.36,3.36,0,0,0,1.39,2.81,24.24,24.24,0,0,0,4.29,2.42,39.81,39.81,0,0,1,4,2.09,8.94,8.94,0,0,1,2.61,2.49,6.41,6.41,0,0,1,1.1,3.8,8.53,8.53,0,0,1-1.23,4.45,8.91,8.91,0,0,1-3.61,3.33,12.12,12.12,0,0,1-5.68,1.25,18.23,18.23,0,0,1-8.58-2.13l.65-4.38.58-.39a13.9,13.9,0,0,0,3.9,2.39,10.69,10.69,0,0,0,4,.84,5.57,5.57,0,0,0,3.87-1.33,4,4,0,0,0,1.48-3.12,3.35,3.35,0,0,0-1.39-2.81,23.62,23.62,0,0,0-4.29-2.42,40.64,40.64,0,0,1-4.06-2.1,8.5,8.5,0,0,1-2.64-2.54,6.9,6.9,0,0,1-1.1-4,7.74,7.74,0,0,1,2.74-6.13,11,11,0,0,1,7.45-2.39A18.29,18.29,0,0,1,462.34,177.7Z"/><path class="cls-3" d="M503.82,193.31,504,200a3.73,3.73,0,0,0,.45,1.9,1.64,1.64,0,0,0,1.42.55,6.85,6.85,0,0,0,2.19-.39l.52.45-.52,2.91a8.34,8.34,0,0,1-3.61,1.29,4.88,4.88,0,0,1-3.13-1.36,5.37,5.37,0,0,1-1.38-3.16h-.46a32.32,32.32,0,0,1-3.48,2.68,19.91,19.91,0,0,1-3.55,1.77q-6.37,0-9.8-3.9t-3.42-11.13q0-7.29,3.81-11.32t10.51-4a24,24,0,0,1,5.68.64l-.07-15.42,5.1-.45Zm-17.36-10.67q-2.38,2.81-2.38,8.09,0,5.49,2.16,8.52a6.93,6.93,0,0,0,6,3,7.45,7.45,0,0,0,3.51-.9,13.44,13.44,0,0,0,3.58-3l.13-4.64-.19-12.26a14.92,14.92,0,0,0-6.26-1.61A8.09,8.09,0,0,0,486.46,182.64Z"/><path class="cls-3" d="M517.43,191.31v.13c0,3.61.81,6.39,2.45,8.32a8.59,8.59,0,0,0,7,2.91,14.22,14.22,0,0,0,4.51-.75,14.87,14.87,0,0,0,4.13-2.09l.52.38-.78,4.39a20.53,20.53,0,0,1-9,2.19c-4.21,0-7.53-1.34-9.93-4s-3.62-6.37-3.62-11.06,1.21-8.49,3.62-11.29a12.16,12.16,0,0,1,9.74-4.19c3.44,0,6.1,1,8,2.93s2.83,4.68,2.83,8.16a20.25,20.25,0,0,1-.25,3.29l-.65.65Zm3.19-9.38a10.64,10.64,0,0,0-2.87,5.9l14.26-.26.13-.9a7.4,7.4,0,0,0-1.58-5.07,5.8,5.8,0,0,0-4.55-1.77A7.43,7.43,0,0,0,520.62,181.93Z"/><path class="cls-3" d="M570.65,177.7l-.71,4.19-.78.2A11.28,11.28,0,0,0,563,180a5.14,5.14,0,0,0-3.55,1.22,3.87,3.87,0,0,0-1.35,3,3.38,3.38,0,0,0,1.38,2.81,25,25,0,0,0,4.29,2.42,39.05,39.05,0,0,1,4,2.09,8.94,8.94,0,0,1,2.61,2.49,6.41,6.41,0,0,1,1.1,3.8,8.53,8.53,0,0,1-1.23,4.45,8.91,8.91,0,0,1-3.61,3.33,12.14,12.14,0,0,1-5.68,1.25,18.23,18.23,0,0,1-8.58-2.13l.65-4.38.58-.39a13.9,13.9,0,0,0,3.9,2.39,10.69,10.69,0,0,0,4,.84,5.57,5.57,0,0,0,3.87-1.33,4,4,0,0,0,1.48-3.12,3.35,3.35,0,0,0-1.39-2.81,23.62,23.62,0,0,0-4.29-2.42,40.64,40.64,0,0,1-4.06-2.1,8.5,8.5,0,0,1-2.64-2.54,6.9,6.9,0,0,1-1.1-4,7.74,7.74,0,0,1,2.74-6.13,11,11,0,0,1,7.45-2.39A18.29,18.29,0,0,1,570.65,177.7Z"/><path class="cls-3" d="M581.68,191.31v.13c0,3.61.81,6.39,2.45,8.32a8.59,8.59,0,0,0,7,2.91,14.22,14.22,0,0,0,4.51-.75,14.87,14.87,0,0,0,4.13-2.09l.52.38-.78,4.39a20.53,20.53,0,0,1-9,2.19c-4.21,0-7.53-1.34-9.93-4s-3.62-6.37-3.62-11.06,1.21-8.49,3.62-11.29a12.16,12.16,0,0,1,9.74-4.19c3.44,0,6.1,1,8,2.93s2.83,4.68,2.83,8.16a20.25,20.25,0,0,1-.25,3.29l-.65.65Zm3.19-9.38a10.64,10.64,0,0,0-2.87,5.9l14.26-.26.13-.9a7.4,7.4,0,0,0-1.58-5.07,5.8,5.8,0,0,0-4.55-1.77A7.43,7.43,0,0,0,584.87,181.93Z"/><path class="cls-3" d="M627.74,186.22a5.87,5.87,0,0,0-1.23-4.13,4.77,4.77,0,0,0-3.8-1.49q-4.07,0-8.78,4.58v8.13l.26,13h-5.1l.33-12.52-.26-16.7,4.84-.46v4.33h.38a19.34,19.34,0,0,1,8.2-4.58q4.83,0,7.38,2.25a8,8,0,0,1,2.49,6.45l-.13,8.39.26,12.84h-5.17Z"/><path class="cls-3" d="M656.31,201.05l.58.39-.51,3.35a19.7,19.7,0,0,1-6.45,1.88,8.67,8.67,0,0,1-5.29-2.71,9.06,9.06,0,0,1-1.62-5.81l.2-4.58-.07-13.35h-4.06l-.26-.39.32-3h3.94V172l4.45-1.93.52.45-.13,6.26h8.77l.26.38-.32,3h-8.71l-.32,17.48a5,5,0,0,0,.9,3.61,4.16,4.16,0,0,0,3.16,1A10.24,10.24,0,0,0,656.31,201.05Z"/><path class="cls-3" d="M667.73,164.28a2.87,2.87,0,0,1,.77,2.13,3.11,3.11,0,0,1-.8,2.26,3,3,0,0,1-2.23.84,2.74,2.74,0,0,1-2.09-.78,3.47,3.47,0,0,1,.06-4.38,3,3,0,0,1,2.23-.84A2.81,2.81,0,0,1,667.73,164.28Zm-4.45,29.48-.19-16.7,5-.46-.13,16.71.13,13h-5Z"/><path class="cls-3" d="M700.69,193.31l.2,6.65a3.73,3.73,0,0,0,.45,1.9,1.64,1.64,0,0,0,1.42.55A6.9,6.9,0,0,0,705,202l.52.45-.52,2.91a8.34,8.34,0,0,1-3.61,1.29,4.88,4.88,0,0,1-3.13-1.36,5.38,5.38,0,0,1-1.39-3.16h-.45a32.32,32.32,0,0,1-3.48,2.68,20.26,20.26,0,0,1-3.55,1.77q-6.39,0-9.81-3.9t-3.41-11.13q0-7.29,3.8-11.32t10.52-4a23.84,23.84,0,0,1,5.67.64l-.06-15.42,5.09-.45Zm-17.35-10.67q-2.39,2.81-2.39,8.09,0,5.49,2.17,8.52a6.91,6.91,0,0,0,6,3,7.46,7.46,0,0,0,3.52-.9,13.44,13.44,0,0,0,3.58-3l.13-4.64-.2-12.26a14.88,14.88,0,0,0-6.25-1.61A8.08,8.08,0,0,0,683.34,182.64Z"/><path class="cls-3" d="M732.34,180.12q3.31,3.9,3.32,11,0,7.49-3.49,11.58t-9.93,4.09q-6.06,0-9.39-3.9t-3.32-11c0-5,1.17-8.84,3.52-11.58s5.66-4.09,10-4.09Q729,176.22,732.34,180.12ZM716.5,182.6q-2.13,2.78-2.13,8.13,0,6.2,2.1,9.29a6.9,6.9,0,0,0,6.09,3.1,7.4,7.4,0,0,0,6.19-2.71q2.13-2.72,2.13-8.13c0-4.09-.7-7.18-2.09-9.29a6.86,6.86,0,0,0-6.1-3.16A7.32,7.32,0,0,0,716.5,182.6Z"/></svg>